PSF_ID_stride3.mot
nRows=12
nColumns=38

name PSF_ID_stride3.mot
datacolumns 38
datarows 12
range 1.2500000000 1.3050000000
endheader
time	pelvis_tilt_moment	pelvis_list_moment	pelvis_rotation_moment	pelvis_tx_force	pelvis_ty_force	pelvis_tz_force	hip_flexion_r_moment	hip_adduction_r_moment	hip_rotation_r_moment	knee_angle_r_moment	ankle_angle_r_moment	subtalar_angle_r_moment	mtp_angle_r_moment	hip_flexion_l_moment	hip_adduction_l_moment	hip_rotation_l_moment	knee_angle_l_moment	ankle_angle_l_moment	subtalar_angle_l_moment	mtp_angle_l_moment	lumbar_extension_moment	lumbar_bending_moment	lumbar_rotation_moment	arm_flex_r_moment	arm_add_r_moment	arm_rot_r_moment	elbow_flex_r_moment	pro_sup_r_moment	wrist_flex_r_moment	wrist_dev_r_moment	arm_flex_l_moment	arm_add_l_moment	arm_rot_l_moment	elbow_flex_l_moment	pro_sup_l_moment	wrist_flex_l_moment	wrist_dev_l_moment
        1.2500000000	       13.0103063200	      -16.6219651239	       42.8372376508	      -28.4254063090	     -111.0234904264	      -86.6306777491	      -10.8821557008	       -3.4632507373	        0.8201827695	        0.8691495394	        2.3654054857	       -0.5172511846	        0.1382022597	        0.8644286426	      -42.4654854592	      -16.6000362507	        1.4968165221	     -191.6832800256	       23.1195707877	       -0.0394659959	        6.4014404120	        4.9543013102	       48.5503479702	        7.8856157684	        6.1805953537	        5.0810096474	        4.7365098088	        0.0625949795	        0.6399435228	       -0.2601913026	       -1.8136738109	       -2.6209493411	       -3.9739035034	        4.2254100271	       -0.2210530421	       -0.3816328860	       -0.4472037765	
        1.2550000000	       19.2318671885	      -31.2357348463	       43.8630691696	        8.2960339465	     -114.2164057331	      -86.5818093469	      -13.2381519531	       -5.0268511866	        1.4342421375	        0.3309395766	        2.3707917426	       -0.5669917915	        0.1344776017	       -0.2649334996	      -29.8258047420	      -18.2706737720	       -6.6755615888	     -180.3715248911	       22.7765086687	       -0.0470196699	       -5.1009691542	        6.4043001441	       48.8017185246	        7.7909681291	        5.6895112556	        4.8970190234	        4.1569244899	        0.0706382708	        0.6119359145	       -0.2062912286	       -2.2151162063	       -2.6457053561	       -3.9676110353	        3.5460529911	       -0.2097151214	       -0.3922514925	       -0.3834417349	
        1.2600000000	       21.9433322389	      -35.7822393515	       41.9468866297	       30.1119014391	     -110.8360923120	      -79.9833701440	      -15.4355508739	       -6.0468882392	        1.7952823945	       -0.2214964945	        2.3835802416	       -0.6078821716	        0.1319116671	        3.1943979628	      -20.7256244437	      -17.9757267240	      -10.4150592829	     -167.6025452432	       22.8728978754	       -0.0545343192	      -12.0552311568	        7.2665574272	       47.4200296851	        7.2744031657	        5.1509719437	        4.5998845610	        3.6302719384	        0.0733376139	        0.5726475709	       -0.1623081804	       -2.5230601459	       -2.5657794074	       -3.7945922190	        2.9722180625	       -0.1948046580	       -0.3913899885	       -0.3265592428	
        1.2650000000	       20.5290176056	      -30.3917352733	       34.3572419703	       36.2116604016	      -94.7667981406	      -73.5225350319	      -17.1067513046	       -6.3670867082	        1.8892188001	       -0.7063366713	        2.4136475213	       -0.6381010980	        0.1306497123	       13.0078110008	      -16.5251552663	      -12.3707974496	      -11.0321224768	     -153.1794740187	       23.2178489636	       -0.0616925174	      -15.2340302961	        7.4000470657	       44.5573104545	        6.5592421367	        4.6379505875	        4.2599204719	        3.1631563708	        0.0730519281	        0.5278727006	       -0.1275028507	       -2.7394446216	       -2.4408266233	       -3.5367835985	        2.5018537463	       -0.1780192122	       -0.3712495692	       -0.2777720112	
        1.2700000000	       15.3639100356	      -20.0960532319	       24.7851437654	       25.7459515886	      -69.4579584517	      -69.3668980742	      -18.0027263045	       -5.8478977950	        1.7220575122	       -1.0531082311	        2.4636178324	       -0.6620306230	        0.1307765113	       24.0795647501	      -16.8494991488	       -5.5022746281	       -9.7109107909	     -136.7744159717	       22.3087457167	       -0.0680107972	      -15.1966290503	        6.3098523601	       40.9730260007	        5.7449444749	        4.1881409553	        3.9124862864	        2.7545859070	        0.0705073595	        0.4817635760	       -0.1005295875	       -2.8666708792	       -2.3209287335	       -3.2465591145	        2.1184012860	       -0.1608287429	       -0.3448158817	       -0.2367185272	
        1.2750000000	       10.5283879851	      -11.4202432430	       17.2638696997	        9.0727621304	      -39.9589534530	      -65.3080501464	      -18.3740499731	       -4.9445664574	        1.4927547654	       -1.2752800301	        2.5265578932	       -0.6883796304	        0.1311896703	       30.8691221793	      -16.7865327666	       -1.5454162211	       -9.2770956143	     -119.9357224483	       20.4188088361	       -0.0706810626	      -14.7642040089	        4.2528364161	       37.1027142688	        4.9055413210	        3.7724315232	        3.5666388419	        2.3804478993	        0.0670105846	        0.4360070108	       -0.0776631934	       -2.9681341847	       -2.1929142989	       -2.9402522568	        1.7704078991	       -0.1436418131	       -0.3149814818	       -0.1993677074	
        1.2800000000	        8.7860033895	       -7.3921262723	       14.2586505405	       -6.7988502820	      -12.2880974885	      -60.2391222487	      -18.5755503463	       -3.8611624216	        1.3726757086	       -1.4207647350	        2.5952903047	       -0.7221433868	        0.1317974116	       32.7830918610	      -14.9016520844	       -0.6753579941	      -10.4862442168	     -103.8194881526	       17.7255574871	       -0.0708630340	      -13.0539408202	        1.2982237885	       33.2780476045	        4.0819252184	        3.3674804521	        3.2251636260	        2.0251649132	        0.0638706544	        0.3914269134	       -0.0568280292	       -3.0777279716	       -2.0416150081	       -2.6239724281	        1.4279810078	       -0.1265112399	       -0.2843018914	       -0.1632198749	
        1.2850000000	       11.5443678447	       -6.4196090915	       14.9289192859	      -15.1330969052	        5.3705759337	      -52.3613525968	      -19.1266878970	       -2.8900568443	        1.4001162270	       -1.5689843268	        2.6550167965	       -0.7654720518	        0.1319158028	       31.1215750438	       -8.2069259273	       -3.4580199168	      -13.0607516910	      -89.5464607483	       15.5617961336	       -0.0643977448	      -11.6181974724	       -2.0994678727	       29.7854573164	        3.2860059035	        2.9216701596	        2.8805134834	        1.6570526817	        0.0618360223	        0.3477097084	       -0.0344593957	       -3.2761803718	       -1.8333773702	       -2.2931490860	        1.0417741972	       -0.1089475636	       -0.2544461530	       -0.1237911892	
        1.2900000000	       17.2551967403	       -3.3976163880	       17.8137986231	      -13.7878453455	        6.5620865100	      -42.3769247648	      -20.5755572206	       -1.9625595616	        1.5932227006	       -1.8301814869	        2.6966232235	       -0.8126512271	        0.1311098739	       31.7453296903	        0.9107098621	       -6.4246392106	      -13.4488728992	      -76.2413353104	       14.2212245583	       -0.0507721595	      -10.6100490013	       -5.6021191559	       26.7315905111	        2.4975901955	        2.3930576053	        2.5220287787	        1.2457355644	        0.0614416273	        0.3038134801	       -0.0075547912	       -3.6135501055	       -1.5453259900	       -1.9375091246	        0.5755309670	       -0.0902083407	       -0.2257092777	       -0.0775215490	
        1.2950000000	       21.8681229861	        4.8127844926	       19.0637851351	       -7.0659546355	       -7.1203039127	      -30.9147773179	      -23.2053571751	       -0.7013869831	        1.7866115301	       -2.2989585876	        2.6981643994	       -0.8534438495	        0.1294432053	       37.3782054153	        9.1215185269	       -6.1217749005	      -10.4709934680	      -62.4800082845	       12.8796406946	       -0.0289756734	      -10.4445549553	       -8.8659872052	       24.0649034140	        1.6952236287	        1.7673429594	        2.1411666628	        0.7723976412	        0.0624279914	        0.2584340487	        0.0253328332	       -4.0864993957	       -1.1759371133	       -1.5521295212	        0.0177811804	       -0.0697744944	       -0.1977940236	       -0.0230350542	
        1.3000000000	       21.6727094133	       14.8747881299	       18.4352637978	        2.2275631225	      -39.8556075543	      -16.6450522639	      -26.8967419128	        1.3333833411	        1.7710203147	       -3.0710424971	        2.6876468332	       -0.8667223242	        0.1274497117	       45.7128742309	       12.5546411196	       -3.9452493199	       -5.5794548748	      -49.4590423415	       11.0685305775	        0.0018756853	      -10.8041760612	      -11.4553687239	       21.6160054816	        0.8831178729	        1.0515267218	        1.7316593247	        0.2344215139	        0.0645650781	        0.2103332229	        0.0640605511	       -4.6413432849	       -0.7354874528	       -1.1389157948	       -0.6195870701	       -0.0475654512	       -0.1701373362	        0.0389119152	
        1.3050000000	       17.7842939781	       21.5325097850	       16.0881460137	       10.5241473589	      -87.4463016924	        0.7738949813	      -31.3332108008	        4.4212008647	        1.5598578367	       -4.2336801176	        2.6526290683	       -0.8701050794	        0.1259827905	       51.3466822834	       13.7090058035	        0.2618911826	       -2.2419766427	      -38.3602410526	        8.8621446594	        0.0412710059	      -12.3324234761	      -13.1516635566	       19.2423187344	        0.0824985249	        0.2735437726	        1.2966748675	       -0.3486622848	        0.0669454203	        0.1595420397	        0.1066690959	       -5.1988169293	       -0.2450549887	       -0.7071942166	       -1.3023197698	       -0.0241306524	       -0.1423674776	        0.1054201685	
